<svg width="139.356" height="16.56" viewBox="0 0 139.356 16.56" xmlns="http://www.w3.org/2000/svg"><g id="svgGroup" stroke-linecap="round" fill-rule="evenodd" font-size="9pt" stroke="#000" stroke-width="0.25mm" fill="white" style="stroke:#000;stroke-width:0.25mm;fill:none"><path d="M 7.002 0.54 L 6.858 0.9 Q 6.354 0.63 5.679 0.486 A 6.736 6.736 0 0 0 4.945 0.37 A 5.376 5.376 0 0 0 4.41 0.342 A 5.62 5.62 0 0 0 3.209 0.464 A 3.999 3.999 0 0 0 1.764 1.08 A 2.442 2.442 0 0 0 0.989 1.926 Q 0.738 2.392 0.706 2.98 A 3.202 3.202 0 0 0 0.702 3.15 A 1.842 1.842 0 0 0 0.814 3.803 A 1.651 1.651 0 0 0 1.188 4.383 Q 1.674 4.878 2.385 5.193 Q 3.064 5.494 4.226 5.868 A 39.274 39.274 0 0 0 4.338 5.904 A 36.309 36.309 0 0 1 5.158 6.188 Q 5.942 6.47 6.485 6.715 A 10.395 10.395 0 0 1 6.561 6.75 Q 7.38 7.128 7.965 7.776 A 2.246 2.246 0 0 1 8.526 9.026 A 3.03 3.03 0 0 1 8.55 9.414 A 4.155 4.155 0 0 1 8.403 10.548 A 3.107 3.107 0 0 1 7.506 12.015 A 3.18 3.18 0 0 1 6.417 12.656 Q 5.931 12.832 5.328 12.912 A 8.254 8.254 0 0 1 4.248 12.978 A 5.999 5.999 0 0 1 3.193 12.89 Q 2.517 12.769 1.971 12.483 A 4.147 4.147 0 0 1 1.144 11.921 A 3.323 3.323 0 0 1 0.531 11.205 A 3.487 3.487 0 0 1 0.105 10.253 A 3.079 3.079 0 0 1 0 9.576 L 0.396 9.576 Q 0.396 10.26 0.819 10.98 Q 1.242 11.7 2.115 12.177 Q 2.964 12.641 4.161 12.654 A 6.386 6.386 0 0 0 4.23 12.654 Q 5.994 12.654 7.083 11.88 A 2.473 2.473 0 0 0 8.055 10.426 Q 8.165 9.998 8.172 9.483 A 5.171 5.171 0 0 0 8.172 9.414 A 2.412 2.412 0 0 0 8.07 8.699 A 1.972 1.972 0 0 0 7.641 7.947 Q 7.11 7.362 6.327 7.011 A 12.817 12.817 0 0 0 5.728 6.762 Q 5.099 6.518 4.248 6.246 A 32.148 32.148 0 0 1 3.488 5.993 Q 2.707 5.722 2.169 5.481 Q 1.386 5.13 0.855 4.554 A 1.987 1.987 0 0 1 0.341 3.403 A 2.679 2.679 0 0 1 0.324 3.096 A 2.748 2.748 0 0 1 0.733 1.66 A 3.296 3.296 0 0 1 0.774 1.593 A 2.895 2.895 0 0 1 1.516 0.81 A 3.94 3.94 0 0 1 2.133 0.441 A 4.104 4.104 0 0 1 3.078 0.124 Q 3.519 0.031 4.028 0.008 A 7.554 7.554 0 0 1 4.374 0 Q 5.256 0 5.832 0.126 A 4.99 4.99 0 0 1 6.633 0.376 A 5.949 5.949 0 0 1 7.002 0.54 Z" id="0" vector-effect="non-scaling-stroke"/><path d="M 10.314 9.468 L 10.314 7.092 A 5.369 5.369 0 0 1 10.404 6.079 Q 10.594 5.091 11.187 4.473 Q 11.994 3.633 13.453 3.569 A 5.598 5.598 0 0 1 13.698 3.564 A 4.167 4.167 0 0 1 14.725 3.683 A 2.861 2.861 0 0 1 16.146 4.509 A 3.153 3.153 0 0 1 16.893 5.918 Q 17.015 6.402 17.027 6.973 A 5.945 5.945 0 0 1 17.028 7.092 L 17.028 9.468 A 4.535 4.535 0 0 1 16.886 10.631 A 3.424 3.424 0 0 1 16.2 11.97 A 2.632 2.632 0 0 1 14.845 12.818 Q 14.404 12.94 13.874 12.957 A 5.438 5.438 0 0 1 13.698 12.96 A 4.459 4.459 0 0 1 12.699 12.855 Q 11.747 12.636 11.169 11.961 A 3.528 3.528 0 0 1 10.352 10.076 A 4.724 4.724 0 0 1 10.314 9.468 Z M 10.656 7.02 L 10.656 9.468 A 3.894 3.894 0 0 0 10.826 10.641 A 3.278 3.278 0 0 0 11.394 11.709 A 2.326 2.326 0 0 0 12.591 12.492 Q 12.987 12.608 13.466 12.631 A 4.984 4.984 0 0 0 13.698 12.636 A 3.985 3.985 0 0 0 14.567 12.547 Q 15.127 12.422 15.536 12.121 A 2.24 2.24 0 0 0 15.948 11.727 Q 16.686 10.818 16.686 9.468 L 16.686 7.02 A 4.468 4.468 0 0 0 16.603 6.127 Q 16.419 5.227 15.831 4.689 A 2.96 2.96 0 0 0 14.03 3.92 A 3.914 3.914 0 0 0 13.698 3.906 A 3.624 3.624 0 0 0 12.652 4.051 A 2.911 2.911 0 0 0 11.52 4.689 A 2.485 2.485 0 0 0 10.81 5.85 Q 10.69 6.254 10.663 6.741 A 5.182 5.182 0 0 0 10.656 7.02 Z" id="1" vector-effect="non-scaling-stroke"/><path d="M 19.134 12.78 L 19.134 0.18 L 19.476 0.18 L 19.476 12.78 L 19.134 12.78 Z" id="2" vector-effect="non-scaling-stroke"/><path d="M 21.798 9.468 L 21.798 7.092 A 5.369 5.369 0 0 1 21.888 6.079 Q 22.078 5.091 22.671 4.473 Q 23.478 3.633 24.937 3.569 A 5.598 5.598 0 0 1 25.182 3.564 A 4.167 4.167 0 0 1 26.209 3.683 A 2.861 2.861 0 0 1 27.63 4.509 A 3.153 3.153 0 0 1 28.377 5.918 Q 28.499 6.402 28.511 6.973 A 5.945 5.945 0 0 1 28.512 7.092 L 28.512 9.468 A 4.535 4.535 0 0 1 28.37 10.631 A 3.424 3.424 0 0 1 27.684 11.97 A 2.632 2.632 0 0 1 26.329 12.818 Q 25.888 12.94 25.358 12.957 A 5.438 5.438 0 0 1 25.182 12.96 A 4.459 4.459 0 0 1 24.183 12.855 Q 23.231 12.636 22.653 11.961 A 3.528 3.528 0 0 1 21.836 10.076 A 4.724 4.724 0 0 1 21.798 9.468 Z M 22.14 7.02 L 22.14 9.468 A 3.894 3.894 0 0 0 22.31 10.641 A 3.278 3.278 0 0 0 22.878 11.709 A 2.326 2.326 0 0 0 24.075 12.492 Q 24.471 12.608 24.95 12.631 A 4.984 4.984 0 0 0 25.182 12.636 A 3.985 3.985 0 0 0 26.051 12.547 Q 26.611 12.422 27.02 12.121 A 2.24 2.24 0 0 0 27.432 11.727 Q 28.17 10.818 28.17 9.468 L 28.17 7.02 A 4.468 4.468 0 0 0 28.087 6.127 Q 27.903 5.227 27.315 4.689 A 2.96 2.96 0 0 0 25.514 3.92 A 3.914 3.914 0 0 0 25.182 3.906 A 3.624 3.624 0 0 0 24.136 4.051 A 2.911 2.911 0 0 0 23.004 4.689 A 2.485 2.485 0 0 0 22.294 5.85 Q 22.174 6.254 22.147 6.741 A 5.182 5.182 0 0 0 22.14 7.02 Z" id="3" vector-effect="non-scaling-stroke"/><path d="M 41.508 12.78 L 41.508 6.588 Q 41.508 5.274 40.824 4.617 A 2.332 2.332 0 0 0 39.416 3.978 A 3.156 3.156 0 0 0 39.078 3.96 A 3.855 3.855 0 0 0 38.005 4.119 A 5.128 5.128 0 0 0 37.242 4.41 L 36.27 4.896 A 0.754 0.754 0 0 1 36.346 5.093 Q 36.438 5.442 36.461 6.227 A 19.475 19.475 0 0 1 36.468 6.786 L 36.468 12.78 L 36.126 12.78 L 36.126 6.012 Q 36.126 4.932 35.424 4.446 A 2.609 2.609 0 0 0 34.538 4.06 Q 34.122 3.96 33.624 3.96 A 5.878 5.878 0 0 0 32.375 4.098 A 6.588 6.588 0 0 0 32.193 4.14 A 5.994 5.994 0 0 0 31.599 4.318 Q 31.31 4.422 31.069 4.548 A 3.411 3.411 0 0 0 30.96 4.608 L 30.96 12.78 L 30.618 12.78 L 30.618 3.762 L 30.96 3.762 L 30.96 4.212 Q 32.202 3.618 33.606 3.618 A 4.868 4.868 0 0 1 34.397 3.679 A 3.643 3.643 0 0 1 35.136 3.879 A 2.661 2.661 0 0 1 35.604 4.115 Q 35.888 4.297 36.075 4.538 A 1.634 1.634 0 0 1 36.126 4.608 Q 36.464 4.415 36.99 4.15 A 36.568 36.568 0 0 1 37.116 4.086 Q 38.141 3.617 39.048 3.601 A 3.631 3.631 0 0 1 39.114 3.6 A 3.146 3.146 0 0 1 40.023 3.725 A 2.466 2.466 0 0 1 41.094 4.374 A 2.531 2.531 0 0 1 41.72 5.497 Q 41.83 5.897 41.847 6.373 A 4.994 4.994 0 0 1 41.85 6.552 L 41.85 12.78 L 41.508 12.78 Z" id="4" vector-effect="non-scaling-stroke"/><path d="M 43.434 9.468 L 43.434 7.092 A 5.369 5.369 0 0 1 43.524 6.079 Q 43.714 5.091 44.307 4.473 Q 45.114 3.633 46.573 3.569 A 5.598 5.598 0 0 1 46.818 3.564 A 4.167 4.167 0 0 1 47.845 3.683 A 2.861 2.861 0 0 1 49.266 4.509 A 3.153 3.153 0 0 1 50.013 5.918 Q 50.135 6.402 50.147 6.973 A 5.945 5.945 0 0 1 50.148 7.092 L 50.148 9.468 A 4.535 4.535 0 0 1 50.006 10.631 A 3.424 3.424 0 0 1 49.32 11.97 A 2.632 2.632 0 0 1 47.965 12.818 Q 47.524 12.94 46.994 12.957 A 5.438 5.438 0 0 1 46.818 12.96 A 4.459 4.459 0 0 1 45.819 12.855 Q 44.867 12.636 44.289 11.961 A 3.528 3.528 0 0 1 43.472 10.076 A 4.724 4.724 0 0 1 43.434 9.468 Z M 43.776 7.02 L 43.776 9.468 A 3.894 3.894 0 0 0 43.946 10.641 A 3.278 3.278 0 0 0 44.514 11.709 A 2.326 2.326 0 0 0 45.711 12.492 Q 46.107 12.608 46.586 12.631 A 4.984 4.984 0 0 0 46.818 12.636 A 3.985 3.985 0 0 0 47.687 12.547 Q 48.247 12.422 48.656 12.121 A 2.24 2.24 0 0 0 49.068 11.727 Q 49.806 10.818 49.806 9.468 L 49.806 7.02 A 4.468 4.468 0 0 0 49.723 6.127 Q 49.539 5.227 48.951 4.689 A 2.96 2.96 0 0 0 47.15 3.92 A 3.914 3.914 0 0 0 46.818 3.906 A 3.624 3.624 0 0 0 45.772 4.051 A 2.911 2.911 0 0 0 44.64 4.689 A 2.485 2.485 0 0 0 43.93 5.85 Q 43.81 6.254 43.783 6.741 A 5.182 5.182 0 0 0 43.776 7.02 Z" id="5" vector-effect="non-scaling-stroke"/><path d="M 58.302 12.78 L 58.302 6.534 A 3.115 3.115 0 0 0 58.214 5.77 A 2.013 2.013 0 0 0 57.402 4.572 A 3.389 3.389 0 0 0 56.138 4.038 A 4.804 4.804 0 0 0 55.152 3.942 Q 54.414 3.942 53.667 4.122 Q 52.92 4.302 52.344 4.608 L 52.344 12.78 L 52.002 12.78 L 52.002 3.762 L 52.344 3.762 L 52.344 4.23 A 5.866 5.866 0 0 1 54.552 3.622 A 7.064 7.064 0 0 1 55.116 3.6 A 6.548 6.548 0 0 1 55.904 3.645 Q 56.318 3.695 56.665 3.802 A 3.117 3.117 0 0 1 57.114 3.978 A 3.302 3.302 0 0 1 57.138 3.989 Q 58.392 4.577 58.602 5.964 A 3.939 3.939 0 0 1 58.644 6.552 L 58.644 12.78 L 58.302 12.78 Z" id="6" vector-effect="non-scaling-stroke"/><path d="M 61.326 12.78 L 61.326 3.762 L 61.668 3.762 L 61.668 12.78 L 61.326 12.78 Z M 61.411 0.47 A 0.266 0.266 0 0 0 61.506 0.486 A 0.209 0.209 0 0 0 61.607 0.461 A 0.265 0.265 0 0 0 61.668 0.414 A 0.239 0.239 0 0 0 61.724 0.329 A 0.266 0.266 0 0 0 61.74 0.234 A 0.209 0.209 0 0 0 61.715 0.133 A 0.265 0.265 0 0 0 61.668 0.072 A 0.295 0.295 0 0 0 61.64 0.048 A 0.214 0.214 0 0 0 61.506 0 A 0.319 0.319 0 0 0 61.499 0 A 0.243 0.243 0 0 0 61.326 0.072 A 0.295 0.295 0 0 0 61.302 0.1 A 0.214 0.214 0 0 0 61.254 0.234 A 0.319 0.319 0 0 0 61.254 0.241 A 0.243 0.243 0 0 0 61.326 0.414 A 0.239 0.239 0 0 0 61.411 0.47 Z" id="7" vector-effect="non-scaling-stroke"/><path d="M 63.648 9.54 L 63.648 7.236 Q 63.648 5.454 64.584 4.527 A 3.164 3.164 0 0 1 66.526 3.625 A 4.31 4.31 0 0 1 66.996 3.6 Q 68.166 3.6 69.408 4.176 L 69.282 4.536 A 5.672 5.672 0 0 0 68.214 4.11 A 4.368 4.368 0 0 0 67.032 3.942 Q 65.718 3.942 64.854 4.752 A 2.587 2.587 0 0 0 64.144 5.941 Q 63.99 6.467 63.99 7.128 L 63.99 9.738 A 4.906 4.906 0 0 0 63.99 9.796 Q 63.99 10.849 64.449 11.496 A 2.051 2.051 0 0 0 64.881 11.943 A 3.26 3.26 0 0 0 66.129 12.517 Q 66.634 12.636 67.23 12.636 Q 68.292 12.636 69.354 12.33 L 69.444 12.672 A 9.049 9.049 0 0 1 67.944 12.932 A 7.841 7.841 0 0 1 67.284 12.96 Q 66.543 12.96 65.99 12.834 A 3.444 3.444 0 0 1 65.664 12.744 A 3.696 3.696 0 0 1 64.956 12.424 Q 64.51 12.158 64.227 11.784 A 2.242 2.242 0 0 1 64.125 11.637 A 2.652 2.652 0 0 1 63.821 10.946 Q 63.724 10.612 63.681 10.209 A 6.394 6.394 0 0 1 63.648 9.54 Z" id="8" vector-effect="non-scaling-stroke"/><path d="M 76.302 12.78 L 76.302 0.18 L 82.314 0.18 L 82.314 0.522 L 76.644 0.522 L 76.644 5.346 L 80.748 5.346 L 80.622 5.688 L 76.644 5.688 L 76.644 12.438 L 82.278 12.438 L 82.278 12.78 L 76.302 12.78 Z" id="10" vector-effect="non-scaling-stroke"/><path d="M 89.838 12.78 L 87.3 8.568 L 84.654 12.78 L 84.258 12.78 L 87.102 8.262 L 84.366 3.762 L 84.78 3.762 L 87.3 7.992 L 89.874 3.762 L 90.27 3.762 L 87.516 8.28 L 90.216 12.78 L 89.838 12.78 Z" id="11" vector-effect="non-scaling-stroke"/><path d="M 91.89 9.54 L 91.89 7.236 Q 91.89 5.454 92.826 4.527 A 3.164 3.164 0 0 1 94.768 3.625 A 4.31 4.31 0 0 1 95.238 3.6 Q 96.408 3.6 97.65 4.176 L 97.524 4.536 A 5.672 5.672 0 0 0 96.456 4.11 A 4.368 4.368 0 0 0 95.274 3.942 Q 93.96 3.942 93.096 4.752 A 2.587 2.587 0 0 0 92.386 5.941 Q 92.232 6.467 92.232 7.128 L 92.232 9.738 A 4.906 4.906 0 0 0 92.232 9.796 Q 92.232 10.849 92.691 11.496 A 2.051 2.051 0 0 0 93.123 11.943 A 3.26 3.26 0 0 0 94.371 12.517 Q 94.876 12.636 95.472 12.636 Q 96.534 12.636 97.596 12.33 L 97.686 12.672 A 9.049 9.049 0 0 1 96.186 12.932 A 7.841 7.841 0 0 1 95.526 12.96 Q 94.785 12.96 94.232 12.834 A 3.444 3.444 0 0 1 93.906 12.744 A 3.696 3.696 0 0 1 93.198 12.424 Q 92.752 12.158 92.469 11.784 A 2.242 2.242 0 0 1 92.367 11.637 A 2.652 2.652 0 0 1 92.063 10.946 Q 91.966 10.612 91.923 10.209 A 6.394 6.394 0 0 1 91.89 9.54 Z" id="12" vector-effect="non-scaling-stroke"/><path d="M 104.976 12.78 L 104.976 6.534 A 3.186 3.186 0 0 0 104.89 5.769 A 2.042 2.042 0 0 0 104.094 4.563 Q 103.212 3.924 101.862 3.924 Q 101.124 3.924 100.377 4.104 A 6.093 6.093 0 0 0 99.424 4.415 A 5.237 5.237 0 0 0 99.018 4.608 L 99.018 12.78 L 98.676 12.78 L 98.676 0.18 L 99.018 0.18 L 99.018 4.23 A 5.866 5.866 0 0 1 101.226 3.622 A 7.064 7.064 0 0 1 101.79 3.6 A 6.548 6.548 0 0 1 102.578 3.645 Q 102.992 3.695 103.339 3.802 A 3.117 3.117 0 0 1 103.788 3.978 A 3.302 3.302 0 0 1 103.812 3.989 Q 105.066 4.577 105.276 5.964 A 3.939 3.939 0 0 1 105.318 6.552 L 105.318 12.78 L 104.976 12.78 Z" id="13" vector-effect="non-scaling-stroke"/><path d="M 107.064 9.738 L 107.064 8.244 A 3.505 3.505 0 0 1 107.174 7.335 A 2.203 2.203 0 0 1 108.378 5.868 Q 109.062 5.544 110.052 5.544 Q 110.97 5.544 111.951 5.814 A 6.853 6.853 0 0 1 112.906 6.151 A 5.301 5.301 0 0 1 113.652 6.552 A 2.837 2.837 0 0 0 113.498 5.599 A 2.455 2.455 0 0 0 112.887 4.653 A 2.047 2.047 0 0 0 112.195 4.222 Q 111.442 3.926 110.218 3.96 A 10.705 10.705 0 0 0 110.214 3.96 L 110.25 3.618 A 8.661 8.661 0 0 1 111.15 3.661 Q 112.061 3.757 112.624 4.063 A 2.17 2.17 0 0 1 112.797 4.167 A 3.009 3.009 0 0 1 113.3 4.583 Q 113.611 4.91 113.75 5.292 A 1.824 1.824 0 0 1 113.805 5.472 A 5.425 5.425 0 0 1 113.916 6.071 Q 113.994 6.655 113.994 7.416 L 113.994 12.78 Q 112.204 12.962 111.329 12.977 A 8.712 8.712 0 0 1 111.186 12.978 A 8.274 8.274 0 0 1 110.004 12.899 Q 109.395 12.811 108.894 12.625 A 3.861 3.861 0 0 1 108.18 12.276 Q 107.201 11.66 107.081 10.172 A 5.391 5.391 0 0 1 107.064 9.738 Z M 107.406 8.298 L 107.406 9.864 A 3.711 3.711 0 0 0 107.486 10.661 Q 107.69 11.587 108.414 12.033 A 3.735 3.735 0 0 0 109.393 12.446 Q 109.855 12.573 110.406 12.622 A 8.344 8.344 0 0 0 111.15 12.654 A 12.842 12.842 0 0 0 111.892 12.631 Q 112.276 12.608 112.716 12.565 A 30.182 30.182 0 0 0 113.652 12.456 L 113.652 6.966 A 4.402 4.402 0 0 0 113.075 6.621 Q 112.767 6.466 112.398 6.33 A 8.773 8.773 0 0 0 111.996 6.192 A 7.161 7.161 0 0 0 110.87 5.93 A 5.811 5.811 0 0 0 110.034 5.868 A 3.878 3.878 0 0 0 109.219 5.949 Q 108.674 6.066 108.259 6.352 A 2.381 2.381 0 0 0 108.135 6.444 Q 107.406 7.02 107.406 8.298 Z" id="14" vector-effect="non-scaling-stroke"/><path d="M 122.094 12.78 L 122.094 6.534 A 3.115 3.115 0 0 0 122.006 5.77 A 2.013 2.013 0 0 0 121.194 4.572 A 3.389 3.389 0 0 0 119.93 4.038 A 4.804 4.804 0 0 0 118.944 3.942 Q 118.206 3.942 117.459 4.122 Q 116.712 4.302 116.136 4.608 L 116.136 12.78 L 115.794 12.78 L 115.794 3.762 L 116.136 3.762 L 116.136 4.23 A 5.866 5.866 0 0 1 118.344 3.622 A 7.064 7.064 0 0 1 118.908 3.6 A 6.548 6.548 0 0 1 119.696 3.645 Q 120.11 3.695 120.457 3.802 A 3.117 3.117 0 0 1 120.906 3.978 A 3.302 3.302 0 0 1 120.93 3.989 Q 122.184 4.577 122.394 5.964 A 3.939 3.939 0 0 1 122.436 6.552 L 122.436 12.78 L 122.094 12.78 Z" id="15" vector-effect="non-scaling-stroke"/><path d="M 130.752 13.914 L 130.752 11.43 A 3.39 3.39 0 0 1 129.914 12.32 A 3.169 3.169 0 0 1 129.429 12.609 A 3.747 3.747 0 0 1 129.416 12.615 Q 128.748 12.935 127.961 12.986 A 4.689 4.689 0 0 1 127.656 12.996 A 4.664 4.664 0 0 1 126.655 12.895 Q 125.771 12.701 125.19 12.132 A 2.764 2.764 0 0 1 124.483 10.93 Q 124.352 10.495 124.319 9.971 A 5.743 5.743 0 0 1 124.308 9.612 L 124.308 6.93 A 4.222 4.222 0 0 1 124.421 5.925 A 2.829 2.829 0 0 1 125.262 4.473 A 3.246 3.246 0 0 1 126.82 3.694 A 4.68 4.68 0 0 1 127.782 3.6 Q 128.754 3.6 129.492 3.888 A 2.631 2.631 0 0 1 130.473 4.568 A 3.4 3.4 0 0 1 130.752 4.914 L 130.752 3.762 L 131.094 3.762 L 131.094 13.932 A 4.19 4.19 0 0 1 131.046 14.59 Q 130.946 15.213 130.644 15.624 Q 130.286 16.111 129.565 16.415 A 4.527 4.527 0 0 1 129.168 16.56 L 129.06 16.236 Q 129.435 16.091 129.708 15.95 A 3.51 3.51 0 0 0 129.951 15.813 Q 130.284 15.606 130.518 15.156 Q 130.683 14.838 130.732 14.349 A 4.419 4.419 0 0 0 130.752 13.914 Z M 124.65 7.02 L 124.65 9.774 A 3.573 3.573 0 0 0 124.767 10.711 A 2.657 2.657 0 0 0 125.415 11.871 A 2.44 2.44 0 0 0 126.501 12.519 Q 126.883 12.634 127.342 12.662 A 5.028 5.028 0 0 0 127.656 12.672 A 3.763 3.763 0 0 0 128.841 12.475 A 4.399 4.399 0 0 0 129.069 12.393 Q 129.78 12.114 130.266 11.493 Q 130.752 10.872 130.752 9.9 L 130.752 5.634 A 2.507 2.507 0 0 0 130.28 4.851 A 2.281 2.281 0 0 0 129.618 4.347 A 3.653 3.653 0 0 0 128.485 3.992 A 4.767 4.767 0 0 0 127.782 3.942 Q 126.63 3.942 125.64 4.617 A 2.075 2.075 0 0 0 124.86 5.651 Q 124.65 6.224 124.65 7.02 Z" id="16" vector-effect="non-scaling-stroke"/><path d="M 132.876 10.368 L 132.876 6.678 A 3.753 3.753 0 0 1 132.988 5.733 A 2.606 2.606 0 0 1 133.785 4.41 A 3.107 3.107 0 0 1 135.21 3.7 A 4.529 4.529 0 0 1 136.188 3.6 A 4.481 4.481 0 0 1 137.133 3.694 Q 137.968 3.874 138.519 4.401 A 2.63 2.63 0 0 1 139.266 5.758 A 3.937 3.937 0 0 1 139.356 6.624 L 139.356 8.334 L 133.218 8.64 L 133.218 10.404 A 2.758 2.758 0 0 0 133.299 11.094 A 1.866 1.866 0 0 0 133.938 12.105 A 2.532 2.532 0 0 0 134.991 12.604 Q 135.366 12.689 135.803 12.69 A 4.558 4.558 0 0 0 135.81 12.69 Q 136.494 12.69 137.25 12.474 Q 138.006 12.258 138.744 11.844 L 138.906 12.15 A 4.91 4.91 0 0 1 137.845 12.655 A 5.851 5.851 0 0 1 137.43 12.78 Q 136.602 12.996 135.774 12.996 A 4.372 4.372 0 0 1 134.905 12.915 Q 134.38 12.808 133.972 12.562 A 2.466 2.466 0 0 1 133.659 12.339 Q 132.913 11.713 132.878 10.49 A 4.258 4.258 0 0 1 132.876 10.368 Z M 133.218 6.66 L 133.218 8.316 L 139.014 7.992 L 139.014 6.606 A 3.797 3.797 0 0 0 138.944 5.851 Q 138.772 5.005 138.177 4.563 A 3.143 3.143 0 0 0 136.632 3.968 A 4.059 4.059 0 0 0 136.17 3.942 A 3.707 3.707 0 0 0 135.047 4.106 A 3.165 3.165 0 0 0 134.091 4.599 A 2.089 2.089 0 0 0 133.326 5.765 Q 133.231 6.116 133.22 6.538 A 4.361 4.361 0 0 0 133.218 6.66 Z" id="17" vector-effect="non-scaling-stroke"/></g></svg>